<svg width="140" height="141" viewBox="0 0 140 141" fill="none" xmlns="http://www.w3.org/2000/svg">
<g clip-path="url(#clip0_83_488)">
<path d="M10.0098 140.65H0V60.6396H10.0098V140.65ZM20.1104 40.0303H10.0205V50.6299H30.04V70.6504H20.1104V80.4004H39.96V70.6504H50.0498V40.0303H39.96V30.2803H80.3096V40.0303H70.2197V50.6299H90.2402V70.6504H80.3096V80.4004H100.16V70.6504H110.25V40.0303H100.16V30.2803H129.86V60.6396H139.87V140.65H129.86V120.53H129.85V120.52H119.84V120.53H110.25V120.52H100.29V120.53H100.24V120.52H80.1699V120.53H60.1602V120.52H30.0303V120.53H20.0303V120.52H10.0195V30.2803H20.1104V40.0303ZM60.1602 140.64H40.04V130.53H30.0303V120.53H60.1602V140.64ZM100.24 130.53H100.29V140.64H80.1699V120.53H100.24V130.53ZM20.0303 130.53H10.0195V120.53H20.0303V130.53ZM110.25 130.53H100.29V120.53H110.25V130.53ZM129.85 130.53H119.84V120.53H129.85V130.53ZM90.71 10.0898H110.25V20.1797H119.85V30.2695H20.0195V20.1797H30.0303V10.0898H50.5195V0H90.71V10.0898Z" fill="#843DE0"/>
</g>
<defs>
<clipPath id="clip0_83_488">
<rect width="139.87" height="140.65" fill="white"/>
</clipPath>
</defs>
</svg>
